<svg width="19" height="19" viewBox="0 0 19 19" fill="none" xmlns="http://www.w3.org/2000/svg">
<path fill-rule="evenodd" clip-rule="evenodd" d="M5.03892 10.5908C3.50581 9.05767 3.50581 6.572 5.03892 5.03889C6.57203 3.50578 9.05769 3.50578 10.5908 5.03889C12.1239 6.572 12.1239 9.05767 10.5908 10.5908C9.0577 12.1239 6.57203 12.1239 5.03892 10.5908ZM3.97826 3.97823C1.85936 6.09713 1.85936 9.53254 3.97826 11.6514C5.80108 13.4743 8.59821 13.729 10.6933 12.4155L13.6302 15.3527C13.9231 15.6456 14.398 15.6456 14.6909 15.3527C14.9838 15.0599 14.9838 14.585 14.6909 14.2921L11.8459 11.4468C13.7682 9.31685 13.7034 6.03021 11.6515 3.97823C9.53257 1.85934 6.09716 1.85934 3.97826 3.97823Z" fill="#C0C0C2"/>
</svg>
